<svg xmlns="http://www.w3.org/2000/svg" xmlns:xlink="http://www.w3.org/1999/xlink" viewBox="0 0 850 850" width="850" height="850" preserveAspectRatio="xMidYMid meet" style="width: 100%; height: 100%; transform: translate3d(0px, 0px, 0px); content-visibility: visible;" id="Opener Loading"><defs><clipPath id="__lottie_element_653"><rect width="850" height="850" x="0" y="0"/></clipPath><clipPath id="__lottie_element_655"><path d="M0,0 L850,0 L850,720 L0,720z"/></clipPath><clipPath id="__lottie_element_659"><path d="M0,0 L550,0 L550,550 L0,550z"/></clipPath><clipPath id="__lottie_element_675"><path d="M0,0 L550,0 L550,550 L0,550z"/></clipPath><clipPath id="__lottie_element_709"><path d="M0,0 L850,0 L850,720 L0,720z"/></clipPath><clipPath id="__lottie_element_737"><path d="M0,0 L550,0 L550,550 L0,550z"/></clipPath><clipPath id="__lottie_element_741"><path d="M0,0 L550,0 L550,550 L0,550z"/></clipPath><clipPath id="__lottie_element_745"><path d="M0,0 L550,0 L550,550 L0,550z"/></clipPath></defs><g clip-path="url(#__lottie_element_653)"><g clip-path="url(#__lottie_element_655)" transform="matrix(1.4333300590515137,0,0,1.4333300590515137,-190.165283203125,-78.99884033203125)" opacity="1" style="display: block;"><g transform="matrix(0,0,0,0,742.75,142.25)" opacity="1" style="display: block;"><g opacity="1" transform="matrix(0.732200026512146,0,0,0.732200026512146,-262,-149)"><path fill="rgb(0,88,171)" fill-opacity="1" d=" M0,-50 C27.594999313354492,-50 50,-27.594999313354492 50,0 C50,27.594999313354492 27.594999313354492,50 0,50 C-27.594999313354492,50 -50,27.594999313354492 -50,0 C-50,-27.594999313354492 -27.594999313354492,-50 0,-50z"/></g></g><g transform="matrix(-0.000008406915185332764,-0.000002570252036093734,0.000002570252036093734,-0.000008406915185332764,281.7481689453125,211.24806213378906)" opacity="1" style="display: block;"><g opacity="1" transform="matrix(1,0,0,1,-260.5559997558594,-148.61500549316406)"><path stroke-linecap="butt" stroke-linejoin="miter" fill-opacity="0" stroke-miterlimit="4" stroke="rgb(0,89,171)" stroke-opacity="1" stroke-width="8" d=" M0,-28.25550079345703 C15.594210624694824,-28.25550079345703 28.25550079345703,-15.594210624694824 28.25550079345703,0 C28.25550079345703,15.594210624694824 15.594210624694824,28.25550079345703 0,28.25550079345703 C-15.594210624694824,28.25550079345703 -28.25550079345703,15.594210624694824 -28.25550079345703,0 C-28.25550079345703,-15.594210624694824 -15.594210624694824,-28.25550079345703 0,-28.25550079345703z"/></g></g><g transform="matrix(-0.0010111099109053612,-0.00011801782966358587,0.00011801782966358587,-0.0010111099109053612,271.62408447265625,511.94683837890625)" opacity="1" style="display: block;"><g opacity="1" transform="matrix(1,0,0,1,-261.5,-148.5)"><path stroke-linecap="butt" stroke-linejoin="miter" fill-opacity="0" stroke-miterlimit="4" stroke="rgb(0,89,171)" stroke-opacity="1" stroke-width="8" d=" M0,-24.5 C13.521550178527832,-24.5 24.5,-13.521550178527832 24.5,0 C24.5,13.521550178527832 13.521550178527832,24.5 0,24.5 C-13.521550178527832,24.5 -24.5,13.521550178527832 -24.5,0 C-24.5,-13.521550178527832 -13.521550178527832,-24.5 0,-24.5z"/></g></g><g transform="matrix(-0.004721113946288824,0.00046748522436246276,-0.00046748522436246276,-0.004721113946288824,119.6469955444336,359.41265869140625)" opacity="1" style="display: block;"><g opacity="1" transform="matrix(1,0,0,1,-262,-151)"><path stroke-linecap="butt" stroke-linejoin="miter" fill-opacity="0" stroke-miterlimit="4" stroke="rgb(0,89,171)" stroke-opacity="1" stroke-width="8" d=" M0,-24 C13.245599746704102,-24 24,-13.245599746704102 24,0 C24,13.245599746704102 13.245599746704102,24 0,24 C-13.245599746704102,24 -24,13.245599746704102 -24,0 C-24,-13.245599746704102 -13.245599746704102,-24 0,-24z"/></g></g><g transform="matrix(-0.010896001942455769,0.0035334937274456024,-0.0035334937274456024,-0.010896001942455769,804.5890502929688,384.0431823730469)" opacity="1" style="display: block;"><g opacity="1" transform="matrix(1,0,0,1,-261.5,-149.5)"><path stroke-linecap="butt" stroke-linejoin="miter" fill-opacity="0" stroke-miterlimit="4" stroke="rgb(0,89,171)" stroke-opacity="1" stroke-width="8" d=" M0,-25.5 C14.073450088500977,-25.5 25.5,-14.073450088500977 25.5,0 C25.5,14.073450088500977 14.073450088500977,25.5 0,25.5 C-14.073450088500977,25.5 -25.5,14.073450088500977 -25.5,0 C-25.5,-14.073450088500977 -14.073450088500977,-25.5 0,-25.5z"/></g></g><g transform="matrix(0.4168716073036194,-0.38873904943466187,0.38873904943466187,0.4168716073036194,475.875,344.8800048828125)" opacity="1" style="display: block;"><g opacity="1" transform="matrix(1,0,0,1,39.5,-7)"><path stroke-linecap="round" stroke-linejoin="miter" fill-opacity="0" stroke-miterlimit="4" stroke="rgb(0,89,171)" stroke-opacity="1" stroke-width="4" d=" M303.2510070800781,-6.923999786376953 C312.71099853515625,-12.449999809265137 320.5,-17 320.5,-17"/></g></g><g transform="matrix(-0.46691665053367615,0.32693856954574585,-0.32693856954574585,-0.46691665053367615,406.375,359)" opacity="1" style="display: block;"><g opacity="1" transform="matrix(1,0,0,1,39.5,-7)"><path stroke-linecap="round" stroke-linejoin="miter" fill-opacity="0" stroke-miterlimit="4" stroke="rgb(0,89,171)" stroke-opacity="1" stroke-width="4" d=" M287.1059875488281,2.506999969482422 C301.7550048828125,-6.050000190734863 320.5,-17 320.5,-17"/></g></g></g><g clip-path="url(#__lottie_element_709)" transform="matrix(-0.24057166278362274,1.0420303344726562,-1.0420303344726562,-0.24057166278362274,902.3739013671875,-3.257080078125)" opacity="1" style="display: block;"><g transform="matrix(-0.02237691357731819,0.016519546508789062,-0.016519546508789062,-0.02237691357731819,726.6651611328125,148.53158569335938)" opacity="1" style="display: block;"><g opacity="1" transform="matrix(0.732200026512146,0,0,0.732200026512146,-262,-149)"><path fill="rgb(0,88,171)" fill-opacity="1" d=" M0,-50 C27.594999313354492,-50 50,-27.594999313354492 50,0 C50,27.594999313354492 27.594999313354492,50 0,50 C-27.594999313354492,50 -50,27.594999313354492 -50,0 C-50,-27.594999313354492 -27.594999313354492,-50 0,-50z"/></g></g><g transform="matrix(-0.025867236778140068,0.023779895156621933,-0.023779895156621933,-0.025867236778140068,275.8861999511719,218.2180938720703)" opacity="1" style="display: block;"><g opacity="1" transform="matrix(1,0,0,1,-260.5559997558594,-148.61500549316406)"><path stroke-linecap="butt" stroke-linejoin="miter" fill-opacity="0" stroke-miterlimit="4" stroke="rgb(0,89,171)" stroke-opacity="1" stroke-width="8" d=" M0,-28.25550079345703 C15.594210624694824,-28.25550079345703 28.25550079345703,-15.594210624694824 28.25550079345703,0 C28.25550079345703,15.594210624694824 15.594210624694824,28.25550079345703 0,28.25550079345703 C-15.594210624694824,28.25550079345703 -28.25550079345703,15.594210624694824 -28.25550079345703,0 C-28.25550079345703,-15.594210624694824 -15.594210624694824,-28.25550079345703 0,-28.25550079345703z"/></g></g><g transform="matrix(-0.030434666201472282,0.043312184512615204,-0.043312184512615204,-0.030434666201472282,264.6250915527344,511.75616455078125)" opacity="1" style="display: block;"><g opacity="1" transform="matrix(1,0,0,1,-261.5,-148.5)"><path stroke-linecap="butt" stroke-linejoin="miter" fill-opacity="0" stroke-miterlimit="4" stroke="rgb(0,89,171)" stroke-opacity="1" stroke-width="8" d=" M0,-24.5 C13.521550178527832,-24.5 24.5,-13.521550178527832 24.5,0 C24.5,13.521550178527832 13.521550178527832,24.5 0,24.5 C-13.521550178527832,24.5 -24.5,13.521550178527832 -24.5,0 C-24.5,-13.521550178527832 -13.521550178527832,-24.5 0,-24.5z"/></g></g><g transform="matrix(-0.029205240309238434,0.06953596323728561,-0.06953596323728561,-0.029205240309238434,122.83634948730469,373.81048583984375)" opacity="1" style="display: block;"><g opacity="1" transform="matrix(1,0,0,1,-262,-151)"><path stroke-linecap="butt" stroke-linejoin="miter" fill-opacity="0" stroke-miterlimit="4" stroke="rgb(0,89,171)" stroke-opacity="1" stroke-width="8" d=" M0,-24 C13.245599746704102,-24 24,-13.245599746704102 24,0 C24,13.245599746704102 13.245599746704102,24 0,24 C-13.245599746704102,24 -24,13.245599746704102 -24,0 C-24,-13.245599746704102 -13.245599746704102,-24 0,-24z"/></g></g><g transform="matrix(-0.018771687522530556,0.10157976299524307,-0.10157976299524307,-0.018771687522530556,754.3406982421875,406.341552734375)" opacity="1" style="display: block;"><g opacity="1" transform="matrix(1,0,0,1,-261.5,-149.5)"><path stroke-linecap="butt" stroke-linejoin="miter" fill-opacity="0" stroke-miterlimit="4" stroke="rgb(0,89,171)" stroke-opacity="1" stroke-width="8" d=" M0,-25.5 C14.073450088500977,-25.5 25.5,-14.073450088500977 25.5,0 C25.5,14.073450088500977 14.073450088500977,25.5 0,25.5 C-14.073450088500977,25.5 -25.5,14.073450088500977 -25.5,0 C-25.5,-14.073450088500977 -14.073450088500977,-25.5 0,-25.5z"/></g></g><g transform="matrix(0.4168716073036194,-0.38873904943466187,0.38873904943466187,0.4168716073036194,475.875,344.8800048828125)" opacity="1" style="display: block;"><g opacity="1" transform="matrix(1,0,0,1,39.5,-7)"><path stroke-linecap="round" stroke-linejoin="miter" fill-opacity="0" stroke-miterlimit="4" stroke="rgb(0,89,171)" stroke-opacity="1" stroke-width="4" d=" M243.8000030517578,-2.805000066757202 C256.7330017089844,4.75 270,12.5 270,12.5 C270,12.5 312.7330017089844,-12.463000297546387 319.5799865722656,-16.461999893188477"/></g></g><g transform="matrix(-0.46691665053367615,0.32693856954574585,-0.32693856954574585,-0.46691665053367615,406.375,359)" opacity="1" style="display: block;"><g opacity="1" transform="matrix(1,0,0,1,39.5,-7)"><path stroke-linecap="round" stroke-linejoin="miter" fill-opacity="0" stroke-miterlimit="4" stroke="rgb(0,89,171)" stroke-opacity="1" stroke-width="4" d=" M190.4149932861328,1.3359999656677246 C203.53399658203125,-6.934999942779541 219.5,-17 219.5,-17 C219.5,-17 270,12.5 270,12.5 C270,12.5 300.260009765625,-5.177000045776367 313.9330139160156,-13.163999557495117"/></g></g></g><g transform="matrix(1,0,0,1,425,425)" opacity="1" style="display: none;"><g opacity="1" transform="matrix(1,0,0,1,3,-21)"><path stroke-linecap="round" stroke-linejoin="miter" fill-opacity="0" stroke-miterlimit="4" stroke="rgb(0,89,171)" stroke-opacity="1" stroke-width="2" d="M0 0"/></g></g><g transform="matrix(0.8923100233078003,0,0,0.8923100233078003,425,425)" opacity="1" style="display: none;"><g opacity="1" transform="matrix(1,0,0,1,3,-21)"><path stroke-linecap="round" stroke-linejoin="miter" fill-opacity="0" stroke-miterlimit="4" stroke="rgb(65,55,140)" stroke-opacity="1" stroke-width="2" d="M0 0"/></g></g><g clip-path="url(#__lottie_element_659)" transform="matrix(1,0,0,1,150,150)" opacity="1" style="display: none;"><g transform="matrix(1,0,0,1,275,275)" opacity="1" style="display: block;"><g opacity="1" transform="matrix(1,0,0,1,0,0)"><path stroke-linecap="butt" stroke-linejoin="miter" fill-opacity="0" stroke-miterlimit="4" stroke="rgb(112,96,231)" stroke-opacity="1" stroke-width="2" d="M0 0"/></g><g opacity="1" transform="matrix(1,0,0,1,0,0)"><path stroke-linecap="butt" stroke-linejoin="miter" fill-opacity="0" stroke-miterlimit="4" stroke="rgb(112,96,231)" stroke-opacity="1" stroke-width="2" d="M0 0"/></g><g opacity="1" transform="matrix(0,-1,1,0,0,0)"><path stroke-linecap="butt" stroke-linejoin="miter" fill-opacity="0" stroke-miterlimit="4" stroke="rgb(112,96,231)" stroke-opacity="1" stroke-width="2" d="M0 0"/></g><g opacity="1" transform="matrix(0,-1,1,0,0,0)"><path stroke-linecap="butt" stroke-linejoin="miter" fill-opacity="0" stroke-miterlimit="4" stroke="rgb(112,96,231)" stroke-opacity="1" stroke-width="2" d="M0 0"/></g><g opacity="1" transform="matrix(-0.7071067690849304,-0.7071067690849304,0.7071067690849304,-0.7071067690849304,0,0)"><path stroke-linecap="butt" stroke-linejoin="miter" fill-opacity="0" stroke-miterlimit="4" stroke="rgb(112,96,231)" stroke-opacity="1" stroke-width="2" d="M0 0"/></g><g opacity="1" transform="matrix(-0.7071067690849304,-0.7071067690849304,0.7071067690849304,-0.7071067690849304,0,0)"><path stroke-linecap="butt" stroke-linejoin="miter" fill-opacity="0" stroke-miterlimit="4" stroke="rgb(112,96,231)" stroke-opacity="1" stroke-width="2" d="M0 0"/></g><g opacity="1" transform="matrix(-0.7313537001609802,0.6819983720779419,-0.6819983720779419,-0.7313537001609802,0,0)"><path stroke-linecap="butt" stroke-linejoin="miter" fill-opacity="0" stroke-miterlimit="4" stroke="rgb(112,96,231)" stroke-opacity="1" stroke-width="2" d="M0 0"/></g><g opacity="1" transform="matrix(-0.7313537001609802,0.6819983720779419,-0.6819983720779419,-0.7313537001609802,0,0)"><path stroke-linecap="butt" stroke-linejoin="miter" fill-opacity="0" stroke-miterlimit="4" stroke="rgb(112,96,231)" stroke-opacity="1" stroke-width="2" d="M0 0"/></g></g></g><g clip-path="url(#__lottie_element_675)" transform="matrix(1.4945499897003174,0,0,1.4945499897003174,13.998748779296875,13.998748779296875)" opacity="1" style="display: none;"><g transform="matrix(1,0,0,1,275,275)" opacity="1" style="display: block;"><g opacity="1" transform="matrix(1,0,0,1,0,0)"><path stroke-linecap="butt" stroke-linejoin="miter" fill-opacity="0" stroke-miterlimit="4" stroke="rgb(112,96,231)" stroke-opacity="1" stroke-width="2" d="M0 0"/></g><g opacity="1" transform="matrix(1,0,0,1,0,0)"><path stroke-linecap="butt" stroke-linejoin="miter" fill-opacity="0" stroke-miterlimit="4" stroke="rgb(112,96,231)" stroke-opacity="1" stroke-width="2" d="M0 0"/></g><g opacity="1" transform="matrix(0,-1,1,0,0,0)"><path stroke-linecap="butt" stroke-linejoin="miter" fill-opacity="0" stroke-miterlimit="4" stroke="rgb(112,96,231)" stroke-opacity="1" stroke-width="2" d="M0 0"/></g><g opacity="1" transform="matrix(0,-1,1,0,0,0)"><path stroke-linecap="butt" stroke-linejoin="miter" fill-opacity="0" stroke-miterlimit="4" stroke="rgb(112,96,231)" stroke-opacity="1" stroke-width="2" d="M0 0"/></g><g opacity="1" transform="matrix(-0.7071067690849304,-0.7071067690849304,0.7071067690849304,-0.7071067690849304,0,0)"><path stroke-linecap="butt" stroke-linejoin="miter" fill-opacity="0" stroke-miterlimit="4" stroke="rgb(112,96,231)" stroke-opacity="1" stroke-width="2" d="M0 0"/></g><g opacity="1" transform="matrix(-0.7071067690849304,-0.7071067690849304,0.7071067690849304,-0.7071067690849304,0,0)"><path stroke-linecap="butt" stroke-linejoin="miter" fill-opacity="0" stroke-miterlimit="4" stroke="rgb(112,96,231)" stroke-opacity="1" stroke-width="2" d="M0 0"/></g><g opacity="1" transform="matrix(-0.7313537001609802,0.6819983720779419,-0.6819983720779419,-0.7313537001609802,0,0)"><path stroke-linecap="butt" stroke-linejoin="miter" fill-opacity="0" stroke-miterlimit="4" stroke="rgb(112,96,231)" stroke-opacity="1" stroke-width="2" d="M0 0"/></g><g opacity="1" transform="matrix(-0.7313537001609802,0.6819983720779419,-0.6819983720779419,-0.7313537001609802,0,0)"><path stroke-linecap="butt" stroke-linejoin="miter" fill-opacity="0" stroke-miterlimit="4" stroke="rgb(112,96,231)" stroke-opacity="1" stroke-width="2" d="M0 0"/></g></g></g><g transform="matrix(1.000002384185791,0,0,1.000002384185791,425,425)" opacity="1" style="display: block;"><g opacity="1" transform="matrix(1,0,0,1,4,-16)"><path fill="rgb(65,55,140)" fill-opacity="1" d=" M0,-172 C94.92680358886719,-172 172,-94.92680358886719 172,0 C172,94.92680358886719 94.92680358886719,172 0,172 C-94.92680358886719,172 -172,94.92680358886719 -172,0 C-172,-94.92680358886719 -94.92680358886719,-172 0,-172z"/></g></g><g transform="matrix(1,0,0,1,425,428)" opacity="1" style="display: block;"><g opacity="1" transform="matrix(1,0,0,1,4,-20)"><path fill="rgb(255,255,255)" fill-opacity="1" d=" M0,-172 C94.92680358886719,-172 172,-94.92680358886719 172,0 C172,94.92680358886719 94.92680358886719,172 0,172 C-94.92680358886719,172 -172,94.92680358886719 -172,0 C-172,-94.92680358886719 -94.92680358886719,-172 0,-172z"/></g></g><g transform="matrix(1,0,0,1,425,426)" opacity="1" style="display: block;"><g opacity="1" transform="matrix(1,0,0,1,4,-20)"><path fill="rgb(0,89,171)" fill-opacity="1" d=" M0,-172 C94.92680358886719,-172 172,-94.92680358886719 172,0 C172,94.92680358886719 94.92680358886719,172 0,172 C-94.92680358886719,172 -172,94.92680358886719 -172,0 C-172,-94.92680358886719 -94.92680358886719,-172 0,-172z"/></g></g><g transform="matrix(1,0,0,1,425,425)" opacity="1" style="display: block;"><g opacity="1" transform="matrix(1,0,0,1,4,-20)"><path fill="rgb(255,250,250)" fill-opacity="1" d=" M0,-172 C94.92680358886719,-172 172,-94.92680358886719 172,0 C172,94.92680358886719 94.92680358886719,172 0,172 C-94.92680358886719,172 -172,94.92680358886719 -172,0 C-172,-94.92680358886719 -94.92680358886719,-172 0,-172z"/></g></g><g transform="matrix(1.036467432975769,0,0,1.036467432975769,424,427)" opacity="1" style="display: block;"><g opacity="1" transform="matrix(1,0,0,1,4,-20)"><path fill="rgb(111,96,231)" fill-opacity="1" d=" M0,-172 C94.92680358886719,-172 172,-94.92680358886719 172,0 C172,94.92680358886719 94.92680358886719,172 0,172 C-94.92680358886719,172 -172,94.92680358886719 -172,0 C-172,-94.92680358886719 -94.92680358886719,-172 0,-172z"/></g></g><g transform="matrix(0.3994683027267456,0,0,0.3994683027267456,437.9440612792969,175.26512145996094)" opacity="1" style="display: block;"><g opacity="1" transform="matrix(1,0,0,1,4,-16)"/><g opacity="1" transform="matrix(1,0,0,1,4,-16)"><path fill="rgb(0,89,171)" fill-opacity="1" d=" M4,-16 M0,-172 C94.92680358886719,-172 172,-94.92680358886719 172,0 C172,94.92680358886719 94.92680358886719,172 0,172 C-94.92680358886719,172 -172,94.92680358886719 -172,0 C-172,-94.92680358886719 -94.92680358886719,-172 0,-172z"/></g></g><g transform="matrix(0.029999999329447746,0,0,0.029999999329447746,441.9194030761719,371.87640380859375)" opacity="1" style="display: none;"><g opacity="1" transform="matrix(1,0,0,1,4,-16)"/><g opacity="1" transform="matrix(1,0,0,1,4,-16)"><path fill="rgb(11,128,237)" fill-opacity="1" d=" M4,-16 M0,-172 C94.92680358886719,-172 172,-94.92680358886719 172,0 C172,94.92680358886719 94.92680358886719,172 0,172 C-94.92680358886719,172 -172,94.92680358886719 -172,0 C-172,-94.92680358886719 -94.92680358886719,-172 0,-172z"/></g></g><g transform="matrix(0.07000000029802322,0,0,0.07000000029802322,436.35791015625,389.3931579589844)" opacity="1" style="display: none;"><g opacity="1" transform="matrix(1,0,0,1,4,-16)"/><g opacity="1" transform="matrix(1,0,0,1,4,-16)"><path fill="rgb(4,112,212)" fill-opacity="1" d=" M4,-16 M0,-172 C94.92680358886719,-172 172,-94.92680358886719 172,0 C172,94.92680358886719 94.92680358886719,172 0,172 C-94.92680358886719,172 -172,94.92680358886719 -172,0 C-172,-94.92680358886719 -94.92680358886719,-172 0,-172z"/></g></g><g transform="matrix(0.18000000715255737,0,0,0.18000000715255737,434.0000305175781,411.99981689453125)" opacity="1" style="display: none;"><g opacity="1" transform="matrix(1,0,0,1,4,-16)"/><g opacity="1" transform="matrix(1,0,0,1,4,-16)"><path fill="rgb(6,103,193)" fill-opacity="1" d=" M4,-16 M0,-172 C94.92680358886719,-172 172,-94.92680358886719 172,0 C172,94.92680358886719 94.92680358886719,172 0,172 C-94.92680358886719,172 -172,94.92680358886719 -172,0 C-172,-94.92680358886719 -94.92680358886719,-172 0,-172z"/></g></g><g transform="matrix(0.41999998688697815,0,0,0.41999998688697815,428,423)" opacity="1" style="display: none;"><g opacity="1" transform="matrix(1,0,0,1,4,-16)"/><g opacity="1" transform="matrix(1,0,0,1,4,-16)"><path fill="rgb(0,89,171)" fill-opacity="1" d=" M4,-16 M0,-172 C94.92680358886719,-172 172,-94.92680358886719 172,0 C172,94.92680358886719 94.92680358886719,172 0,172 C-94.92680358886719,172 -172,94.92680358886719 -172,0 C-172,-94.92680358886719 -94.92680358886719,-172 0,-172z"/></g></g><g clip-path="url(#__lottie_element_737)" transform="matrix(0.5345500111579895,0,0,0.5345500111579895,292.9987487792969,23.998748779296875)" opacity="1" style="display: block;"><g transform="matrix(1,0,0,1,275,275)" opacity="1" style="display: block;"><g opacity="1" transform="matrix(1,0,0,1,0,0)"><path stroke-linecap="butt" stroke-linejoin="miter" fill-opacity="0" stroke-miterlimit="4" stroke="rgb(112,96,231)" stroke-opacity="1" stroke-width="2" d=" M215.1739959716797,0.023000000044703484 C227.23399353027344,0.009999999776482582 235.15199279785156,0.0020000000949949026 236.71600341796875,0"/></g><g opacity="1" transform="matrix(1,0,0,1,0,0)"><path stroke-linecap="butt" stroke-linejoin="miter" fill-opacity="0" stroke-miterlimit="4" stroke="rgb(112,96,231)" stroke-opacity="1" stroke-width="2" d=" M-215.1739959716797,0.023000000044703484 C-227.23399353027344,0.009999999776482582 -235.15199279785156,0.0020000000949949026 -236.71600341796875,0"/></g><g opacity="1" transform="matrix(0,-1,1,0,0,0)"><path stroke-linecap="butt" stroke-linejoin="miter" fill-opacity="0" stroke-miterlimit="4" stroke="rgb(112,96,231)" stroke-opacity="1" stroke-width="2" d=" M215.1739959716797,0.023000000044703484 C227.23399353027344,0.009999999776482582 235.15199279785156,0.0020000000949949026 236.71600341796875,0"/></g><g opacity="1" transform="matrix(0,-1,1,0,0,0)"><path stroke-linecap="butt" stroke-linejoin="miter" fill-opacity="0" stroke-miterlimit="4" stroke="rgb(112,96,231)" stroke-opacity="1" stroke-width="2" d=" M-215.1739959716797,0.023000000044703484 C-227.23399353027344,0.009999999776482582 -235.15199279785156,0.0020000000949949026 -236.71600341796875,0"/></g><g opacity="1" transform="matrix(-0.7071067690849304,-0.7071067690849304,0.7071067690849304,-0.7071067690849304,0,0)"><path stroke-linecap="butt" stroke-linejoin="miter" fill-opacity="0" stroke-miterlimit="4" stroke="rgb(112,96,231)" stroke-opacity="1" stroke-width="2" d=" M215.1739959716797,0.023000000044703484 C227.23399353027344,0.009999999776482582 235.15199279785156,0.0020000000949949026 236.71600341796875,0"/></g><g opacity="1" transform="matrix(-0.7071067690849304,-0.7071067690849304,0.7071067690849304,-0.7071067690849304,0,0)"><path stroke-linecap="butt" stroke-linejoin="miter" fill-opacity="0" stroke-miterlimit="4" stroke="rgb(112,96,231)" stroke-opacity="1" stroke-width="2" d=" M-215.1739959716797,0.023000000044703484 C-227.23399353027344,0.009999999776482582 -235.15199279785156,0.0020000000949949026 -236.71600341796875,0"/></g><g opacity="1" transform="matrix(-0.7313537001609802,0.6819983720779419,-0.6819983720779419,-0.7313537001609802,0,0)"><path stroke-linecap="butt" stroke-linejoin="miter" fill-opacity="0" stroke-miterlimit="4" stroke="rgb(112,96,231)" stroke-opacity="1" stroke-width="2" d=" M215.1739959716797,0.023000000044703484 C227.23399353027344,0.009999999776482582 235.15199279785156,0.0020000000949949026 236.71600341796875,0"/></g><g opacity="1" transform="matrix(-0.7313537001609802,0.6819983720779419,-0.6819983720779419,-0.7313537001609802,0,0)"><path stroke-linecap="butt" stroke-linejoin="miter" fill-opacity="0" stroke-miterlimit="4" stroke="rgb(112,96,231)" stroke-opacity="1" stroke-width="2" d=" M-215.1739959716797,0.023000000044703484 C-227.23399353027344,0.009999999776482582 -235.15199279785156,0.0020000000949949026 -236.71600341796875,0"/></g></g></g><g clip-path="url(#__lottie_element_741)" transform="matrix(0.5208495259284973,-0.12024758756160736,0.12024758756160736,0.5208495259284973,263.69830322265625,60.83446502685547)" opacity="1" style="display: block;"><g transform="matrix(1,0,0,1,275,275)" opacity="1" style="display: block;"><g opacity="1" transform="matrix(1,0,0,1,0,0)"><path stroke-linecap="butt" stroke-linejoin="miter" fill-opacity="0" stroke-miterlimit="4" stroke="rgb(112,96,231)" stroke-opacity="1" stroke-width="2" d=" M215.1739959716797,0.023000000044703484 C227.23399353027344,0.009999999776482582 235.15199279785156,0.0020000000949949026 236.71600341796875,0"/></g><g opacity="1" transform="matrix(1,0,0,1,0,0)"><path stroke-linecap="butt" stroke-linejoin="miter" fill-opacity="0" stroke-miterlimit="4" stroke="rgb(112,96,231)" stroke-opacity="1" stroke-width="2" d=" M-215.1739959716797,0.023000000044703484 C-227.23399353027344,0.009999999776482582 -235.15199279785156,0.0020000000949949026 -236.71600341796875,0"/></g><g opacity="1" transform="matrix(0,-1,1,0,0,0)"><path stroke-linecap="butt" stroke-linejoin="miter" fill-opacity="0" stroke-miterlimit="4" stroke="rgb(112,96,231)" stroke-opacity="1" stroke-width="2" d=" M215.1739959716797,0.023000000044703484 C227.23399353027344,0.009999999776482582 235.15199279785156,0.0020000000949949026 236.71600341796875,0"/></g><g opacity="1" transform="matrix(0,-1,1,0,0,0)"><path stroke-linecap="butt" stroke-linejoin="miter" fill-opacity="0" stroke-miterlimit="4" stroke="rgb(112,96,231)" stroke-opacity="1" stroke-width="2" d=" M-215.1739959716797,0.023000000044703484 C-227.23399353027344,0.009999999776482582 -235.15199279785156,0.0020000000949949026 -236.71600341796875,0"/></g><g opacity="1" transform="matrix(-0.7071067690849304,-0.7071067690849304,0.7071067690849304,-0.7071067690849304,0,0)"><path stroke-linecap="butt" stroke-linejoin="miter" fill-opacity="0" stroke-miterlimit="4" stroke="rgb(112,96,231)" stroke-opacity="1" stroke-width="2" d=" M215.1739959716797,0.023000000044703484 C227.23399353027344,0.009999999776482582 235.15199279785156,0.0020000000949949026 236.71600341796875,0"/></g><g opacity="1" transform="matrix(-0.7071067690849304,-0.7071067690849304,0.7071067690849304,-0.7071067690849304,0,0)"><path stroke-linecap="butt" stroke-linejoin="miter" fill-opacity="0" stroke-miterlimit="4" stroke="rgb(112,96,231)" stroke-opacity="1" stroke-width="2" d=" M-215.1739959716797,0.023000000044703484 C-227.23399353027344,0.009999999776482582 -235.15199279785156,0.0020000000949949026 -236.71600341796875,0"/></g><g opacity="1" transform="matrix(-0.7313537001609802,0.6819983720779419,-0.6819983720779419,-0.7313537001609802,0,0)"><path stroke-linecap="butt" stroke-linejoin="miter" fill-opacity="0" stroke-miterlimit="4" stroke="rgb(112,96,231)" stroke-opacity="1" stroke-width="2" d=" M215.1739959716797,0.023000000044703484 C227.23399353027344,0.009999999776482582 235.15199279785156,0.0020000000949949026 236.71600341796875,0"/></g><g opacity="1" transform="matrix(-0.7313537001609802,0.6819983720779419,-0.6819983720779419,-0.7313537001609802,0,0)"><path stroke-linecap="butt" stroke-linejoin="miter" fill-opacity="0" stroke-miterlimit="4" stroke="rgb(112,96,231)" stroke-opacity="1" stroke-width="2" d=" M-215.1739959716797,0.023000000044703484 C-227.23399353027344,0.009999999776482582 -235.15199279785156,0.0020000000949949026 -236.71600341796875,0"/></g></g></g><g clip-path="url(#__lottie_element_745)" transform="matrix(0.47197964787483215,-0.2509560286998749,0.2509560286998749,0.47197964787483215,241.19268798828125,110.218505859375)" opacity="1" style="display: block;"><g transform="matrix(1,0,0,1,275,275)" opacity="1" style="display: block;"><g opacity="1" transform="matrix(1,0,0,1,0,0)"><path stroke-linecap="butt" stroke-linejoin="miter" fill-opacity="0" stroke-miterlimit="4" stroke="rgb(112,96,231)" stroke-opacity="1" stroke-width="2" d=" M215.1739959716797,0.023000000044703484 C227.23399353027344,0.009999999776482582 235.15199279785156,0.0020000000949949026 236.71600341796875,0"/></g><g opacity="1" transform="matrix(1,0,0,1,0,0)"><path stroke-linecap="butt" stroke-linejoin="miter" fill-opacity="0" stroke-miterlimit="4" stroke="rgb(112,96,231)" stroke-opacity="1" stroke-width="2" d=" M-215.1739959716797,0.023000000044703484 C-227.23399353027344,0.009999999776482582 -235.15199279785156,0.0020000000949949026 -236.71600341796875,0"/></g><g opacity="1" transform="matrix(0,-1,1,0,0,0)"><path stroke-linecap="butt" stroke-linejoin="miter" fill-opacity="0" stroke-miterlimit="4" stroke="rgb(112,96,231)" stroke-opacity="1" stroke-width="2" d=" M215.1739959716797,0.023000000044703484 C227.23399353027344,0.009999999776482582 235.15199279785156,0.0020000000949949026 236.71600341796875,0"/></g><g opacity="1" transform="matrix(0,-1,1,0,0,0)"><path stroke-linecap="butt" stroke-linejoin="miter" fill-opacity="0" stroke-miterlimit="4" stroke="rgb(112,96,231)" stroke-opacity="1" stroke-width="2" d=" M-215.1739959716797,0.023000000044703484 C-227.23399353027344,0.009999999776482582 -235.15199279785156,0.0020000000949949026 -236.71600341796875,0"/></g><g opacity="1" transform="matrix(-0.7071067690849304,-0.7071067690849304,0.7071067690849304,-0.7071067690849304,0,0)"><path stroke-linecap="butt" stroke-linejoin="miter" fill-opacity="0" stroke-miterlimit="4" stroke="rgb(112,96,231)" stroke-opacity="1" stroke-width="2" d=" M215.1739959716797,0.023000000044703484 C227.23399353027344,0.009999999776482582 235.15199279785156,0.0020000000949949026 236.71600341796875,0"/></g><g opacity="1" transform="matrix(-0.7071067690849304,-0.7071067690849304,0.7071067690849304,-0.7071067690849304,0,0)"><path stroke-linecap="butt" stroke-linejoin="miter" fill-opacity="0" stroke-miterlimit="4" stroke="rgb(112,96,231)" stroke-opacity="1" stroke-width="2" d=" M-215.1739959716797,0.023000000044703484 C-227.23399353027344,0.009999999776482582 -235.15199279785156,0.0020000000949949026 -236.71600341796875,0"/></g><g opacity="1" transform="matrix(-0.7313537001609802,0.6819983720779419,-0.6819983720779419,-0.7313537001609802,0,0)"><path stroke-linecap="butt" stroke-linejoin="miter" fill-opacity="0" stroke-miterlimit="4" stroke="rgb(112,96,231)" stroke-opacity="1" stroke-width="2" d=" M215.1739959716797,0.023000000044703484 C227.23399353027344,0.009999999776482582 235.15199279785156,0.0020000000949949026 236.71600341796875,0"/></g><g opacity="1" transform="matrix(-0.7313537001609802,0.6819983720779419,-0.6819983720779419,-0.7313537001609802,0,0)"><path stroke-linecap="butt" stroke-linejoin="miter" fill-opacity="0" stroke-miterlimit="4" stroke="rgb(112,96,231)" stroke-opacity="1" stroke-width="2" d=" M-215.1739959716797,0.023000000044703484 C-227.23399353027344,0.009999999776482582 -235.15199279785156,0.0020000000949949026 -236.71600341796875,0"/></g></g></g></g></svg>